<mxfile host="app.diagrams.net" modified="2024-07-22T09:50:09.023Z" agent="Mozilla/5.0 (Windows NT 10.0; Win64; x64) AppleWebKit/537.36 (KHTML, like Gecko) Chrome/126.0.0.0 Safari/537.36" etag="bj-jWUa6j2eaSBp23wj4" version="24.7.1" type="device">
  <diagram id="C5RBs43oDa-KdzZeNtuy" name="Page-1">
    <mxGraphModel dx="1050" dy="557" grid="1" gridSize="10" guides="1" tooltips="1" connect="1" arrows="1" fold="1" page="1" pageScale="1" pageWidth="827" pageHeight="1169" math="0" shadow="0">
      <root>
        <mxCell id="WIyWlLk6GJQsqaUBKTNV-0" />
        <mxCell id="WIyWlLk6GJQsqaUBKTNV-1" parent="WIyWlLk6GJQsqaUBKTNV-0" />
        <mxCell id="I830Mtel0ViA4OwcPWyJ-3" value="User" style="shape=umlActor;verticalLabelPosition=bottom;verticalAlign=top;html=1;outlineConnect=0;" vertex="1" parent="WIyWlLk6GJQsqaUBKTNV-1">
          <mxGeometry x="80" y="290" width="70" height="120" as="geometry" />
        </mxCell>
        <mxCell id="I830Mtel0ViA4OwcPWyJ-4" value="" style="swimlane;startSize=0;" vertex="1" parent="WIyWlLk6GJQsqaUBKTNV-1">
          <mxGeometry x="290" y="40" width="280" height="1010" as="geometry" />
        </mxCell>
        <mxCell id="I830Mtel0ViA4OwcPWyJ-6" value="&lt;h3&gt;view product&lt;/h3&gt;" style="ellipse;whiteSpace=wrap;html=1;" vertex="1" parent="I830Mtel0ViA4OwcPWyJ-4">
          <mxGeometry x="49.5" y="30" width="170" height="60" as="geometry" />
        </mxCell>
        <mxCell id="I830Mtel0ViA4OwcPWyJ-7" value="Search products" style="ellipse;whiteSpace=wrap;html=1;" vertex="1" parent="I830Mtel0ViA4OwcPWyJ-4">
          <mxGeometry x="50" y="130" width="170" height="60" as="geometry" />
        </mxCell>
        <mxCell id="I830Mtel0ViA4OwcPWyJ-9" value="Add to Cart" style="ellipse;whiteSpace=wrap;html=1;" vertex="1" parent="I830Mtel0ViA4OwcPWyJ-4">
          <mxGeometry x="50" y="230" width="170" height="60" as="geometry" />
        </mxCell>
        <mxCell id="I830Mtel0ViA4OwcPWyJ-13" value="View Cart" style="ellipse;whiteSpace=wrap;html=1;" vertex="1" parent="I830Mtel0ViA4OwcPWyJ-4">
          <mxGeometry x="50" y="330" width="170" height="60" as="geometry" />
        </mxCell>
        <mxCell id="I830Mtel0ViA4OwcPWyJ-15" value="Login" style="ellipse;whiteSpace=wrap;html=1;" vertex="1" parent="I830Mtel0ViA4OwcPWyJ-4">
          <mxGeometry x="50" y="420" width="170" height="60" as="geometry" />
        </mxCell>
        <mxCell id="I830Mtel0ViA4OwcPWyJ-17" value="Register" style="ellipse;whiteSpace=wrap;html=1;" vertex="1" parent="I830Mtel0ViA4OwcPWyJ-4">
          <mxGeometry x="50" y="510" width="170" height="60" as="geometry" />
        </mxCell>
        <mxCell id="I830Mtel0ViA4OwcPWyJ-27" value="Place Order" style="ellipse;whiteSpace=wrap;html=1;" vertex="1" parent="I830Mtel0ViA4OwcPWyJ-4">
          <mxGeometry x="49.5" y="600" width="170" height="60" as="geometry" />
        </mxCell>
        <mxCell id="I830Mtel0ViA4OwcPWyJ-32" value="Manage Orders" style="ellipse;whiteSpace=wrap;html=1;" vertex="1" parent="I830Mtel0ViA4OwcPWyJ-4">
          <mxGeometry x="50" y="700" width="170" height="60" as="geometry" />
        </mxCell>
        <mxCell id="I830Mtel0ViA4OwcPWyJ-34" value="Manage Customers" style="ellipse;whiteSpace=wrap;html=1;" vertex="1" parent="I830Mtel0ViA4OwcPWyJ-4">
          <mxGeometry x="49.5" y="790" width="170" height="60" as="geometry" />
        </mxCell>
        <mxCell id="I830Mtel0ViA4OwcPWyJ-38" value="Manage Products" style="ellipse;whiteSpace=wrap;html=1;" vertex="1" parent="I830Mtel0ViA4OwcPWyJ-4">
          <mxGeometry x="55" y="900" width="170" height="60" as="geometry" />
        </mxCell>
        <mxCell id="I830Mtel0ViA4OwcPWyJ-21" value="" style="endArrow=none;html=1;rounded=0;exitX=0;exitY=0.5;exitDx=0;exitDy=0;" edge="1" parent="WIyWlLk6GJQsqaUBKTNV-1" source="I830Mtel0ViA4OwcPWyJ-6">
          <mxGeometry width="50" height="50" relative="1" as="geometry">
            <mxPoint x="410" y="370" as="sourcePoint" />
            <mxPoint x="160" y="310" as="targetPoint" />
          </mxGeometry>
        </mxCell>
        <mxCell id="I830Mtel0ViA4OwcPWyJ-22" value="" style="endArrow=none;html=1;rounded=0;entryX=0;entryY=0.5;entryDx=0;entryDy=0;" edge="1" parent="WIyWlLk6GJQsqaUBKTNV-1" target="I830Mtel0ViA4OwcPWyJ-7">
          <mxGeometry width="50" height="50" relative="1" as="geometry">
            <mxPoint x="170" y="330" as="sourcePoint" />
            <mxPoint x="460" y="270" as="targetPoint" />
          </mxGeometry>
        </mxCell>
        <mxCell id="I830Mtel0ViA4OwcPWyJ-23" value="" style="endArrow=none;html=1;rounded=0;entryX=0;entryY=0.5;entryDx=0;entryDy=0;" edge="1" parent="WIyWlLk6GJQsqaUBKTNV-1" target="I830Mtel0ViA4OwcPWyJ-9">
          <mxGeometry width="50" height="50" relative="1" as="geometry">
            <mxPoint x="170" y="350" as="sourcePoint" />
            <mxPoint x="460" y="270" as="targetPoint" />
          </mxGeometry>
        </mxCell>
        <mxCell id="I830Mtel0ViA4OwcPWyJ-24" value="" style="endArrow=none;html=1;rounded=0;entryX=0;entryY=0.5;entryDx=0;entryDy=0;" edge="1" parent="WIyWlLk6GJQsqaUBKTNV-1" target="I830Mtel0ViA4OwcPWyJ-13">
          <mxGeometry width="50" height="50" relative="1" as="geometry">
            <mxPoint x="170" y="370" as="sourcePoint" />
            <mxPoint x="460" y="270" as="targetPoint" />
          </mxGeometry>
        </mxCell>
        <mxCell id="I830Mtel0ViA4OwcPWyJ-25" value="" style="endArrow=none;html=1;rounded=0;entryX=0;entryY=0.5;entryDx=0;entryDy=0;" edge="1" parent="WIyWlLk6GJQsqaUBKTNV-1" target="I830Mtel0ViA4OwcPWyJ-15">
          <mxGeometry width="50" height="50" relative="1" as="geometry">
            <mxPoint x="170" y="390" as="sourcePoint" />
            <mxPoint x="460" y="360" as="targetPoint" />
          </mxGeometry>
        </mxCell>
        <mxCell id="I830Mtel0ViA4OwcPWyJ-26" value="" style="endArrow=none;html=1;rounded=0;entryX=0;entryY=0.5;entryDx=0;entryDy=0;" edge="1" parent="WIyWlLk6GJQsqaUBKTNV-1" target="I830Mtel0ViA4OwcPWyJ-17">
          <mxGeometry width="50" height="50" relative="1" as="geometry">
            <mxPoint x="160" y="400" as="sourcePoint" />
            <mxPoint x="460" y="360" as="targetPoint" />
          </mxGeometry>
        </mxCell>
        <mxCell id="I830Mtel0ViA4OwcPWyJ-29" value="" style="endArrow=none;html=1;rounded=0;entryX=0;entryY=0.5;entryDx=0;entryDy=0;" edge="1" parent="WIyWlLk6GJQsqaUBKTNV-1" target="I830Mtel0ViA4OwcPWyJ-27">
          <mxGeometry width="50" height="50" relative="1" as="geometry">
            <mxPoint x="150" y="430" as="sourcePoint" />
            <mxPoint x="460" y="560" as="targetPoint" />
          </mxGeometry>
        </mxCell>
        <mxCell id="I830Mtel0ViA4OwcPWyJ-30" value="Admin" style="shape=umlActor;verticalLabelPosition=bottom;verticalAlign=top;html=1;outlineConnect=0;" vertex="1" parent="WIyWlLk6GJQsqaUBKTNV-1">
          <mxGeometry x="40" y="740" width="70" height="120" as="geometry" />
        </mxCell>
        <mxCell id="I830Mtel0ViA4OwcPWyJ-36" value="" style="endArrow=none;html=1;rounded=0;exitX=0;exitY=0.5;exitDx=0;exitDy=0;" edge="1" parent="WIyWlLk6GJQsqaUBKTNV-1" source="I830Mtel0ViA4OwcPWyJ-32">
          <mxGeometry width="50" height="50" relative="1" as="geometry">
            <mxPoint x="410" y="770" as="sourcePoint" />
            <mxPoint x="340" y="770" as="targetPoint" />
            <Array as="points">
              <mxPoint x="130" y="790" />
            </Array>
          </mxGeometry>
        </mxCell>
        <mxCell id="I830Mtel0ViA4OwcPWyJ-37" value="" style="endArrow=none;html=1;rounded=0;exitX=0;exitY=0.5;exitDx=0;exitDy=0;" edge="1" parent="WIyWlLk6GJQsqaUBKTNV-1" source="I830Mtel0ViA4OwcPWyJ-34">
          <mxGeometry width="50" height="50" relative="1" as="geometry">
            <mxPoint x="410" y="770" as="sourcePoint" />
            <mxPoint x="130" y="810" as="targetPoint" />
          </mxGeometry>
        </mxCell>
        <mxCell id="I830Mtel0ViA4OwcPWyJ-40" value="" style="endArrow=none;html=1;rounded=0;entryX=0;entryY=0.5;entryDx=0;entryDy=0;" edge="1" parent="WIyWlLk6GJQsqaUBKTNV-1" target="I830Mtel0ViA4OwcPWyJ-38">
          <mxGeometry width="50" height="50" relative="1" as="geometry">
            <mxPoint x="130" y="830" as="sourcePoint" />
            <mxPoint x="480" y="800" as="targetPoint" />
          </mxGeometry>
        </mxCell>
      </root>
    </mxGraphModel>
  </diagram>
</mxfile>
